<?xml version="1.0" encoding="utf-8"?>
<!-- Generator: Adobe Illustrator 18.1.0, SVG Export Plug-In . SVG Version: 6.00 Build 0)  -->
<svg version="1.1" id="Layer_1" xmlns="http://www.w3.org/2000/svg" xmlns:xlink="http://www.w3.org/1999/xlink" x="0px" y="0px"
	 viewBox="0 55.8 792 1110.1" enable-background="new 0 55.8 792 1110.1" xml:space="preserve">
<path fill="#FFFFFF" d="M501.6,754.9c-2.4-4.3-16.1-29.4-26.2-40.4c7.1-4.9,14-10.3,20.6-15.9l0,0c8.4,1.5,17.2-0.9,22.5-7.7
	c1.1-1.3,1.7-2.8,2.6-4.3c9.7,4.7,19.5,9.4,29.2,14c-1.1,22.5-4.5,43.4-11.2,65c-4.3,13.5-8.8,26.8-13.1,40.1
	C519.2,788.4,511,771.3,501.6,754.9z"/>
<path fill="#FFFFFF" d="M444.1,1119c-18.2-0.2-36.7-1.7-54.5-5.8c-7.3-1.5-14.6-3-18.5-10.3c-3.9-7.3-5.2-17.6-7.1-25.3
	c-9.4-37.6-17.6-75.3-25.5-113.1c-3.9-18.9-7.9-37.8-11.8-56.7c-2.8-13.7-5.2-27.9-8.4-41.9c5.8-1.7,14.8-1.7,19.5-2.6
	c9.9-1.7,19.7-3.2,29.6-4.5c20.2-2.8,40.6-4.9,61-6.4c19.3-1.5,38.8-2.4,58.4-2.6c4.1,0,8.4-0.2,12.4-0.2c4.1,0,10.3-1.1,14.6-0.4
	c0,0.6,0.2,1.3,0.2,1.9l0.2,4.1c0.2,5.6,0.4,11.2,0.6,16.7c3.4,77.3,10.5,154.8,23.6,230.9C508.3,1113.6,476.5,1119.2,444.1,1119z"
	/>
<path fill="#FFFFFF" d="M574.4,1060.2c-2.8,3.4-6.4,6-10.3,8.4c-1.1,0.6-2.4,1.3-3.4,1.9c-4.3-26.2-8.2-52.4-11.6-78.8
	c7.9-1.3,16.1-3.6,23.6-6.4c1.5,16.3,2.6,32.4,5.2,48.7C579.5,1043.8,581.2,1052.2,574.4,1060.2z"/>
<path fill="#FFFFFF" d="M617.3,946c-5.8,1.5-9.9,2.1-14.4,6.4c-0.2,0.2-0.2,0.2-0.4,0.4c-0.9-7.1-2.8-14.6-3.9-20.6
	c-1.9-13.1-4.1-26.4-6.2-39.5c-2.1-13.1-4.3-26.4-6.7-39.5c-0.6-3-0.9-6.7-1.5-10.1c4.1,0,8.4,0.2,12.7,0.9
	c7.9,1.3,10.3,4.1,12.2,11.8c3.4,13.1,4.3,26.6,5.8,39.9c1.5,13.5,2.8,26.8,4.3,40.4c0.2,3,0.9,6,1.1,8.8
	C619.4,945.3,618.4,945.5,617.3,946z"/>
<path fill="#FFFFFF" d="M737.5,940.2c-16.5,24-45.7,17-67.8,5.2c11.8-1.9,23.4-6.9,32-13.3c2.8-2.1,1.3-6.4-2.4-5.8
	c-10.3,2.1-20.6,3.9-31.1,3c-9.9-0.6-19.3-3.4-29.2-4.3c0,0,0,0-0.2,0c-1.7-14.4-4.1-28.8-6-42.5c-1.5-10.5-2.4-26.8-7.7-38.4
	c3.6-2.6,6.4-6.2,9.9-9.2c5.2-4.5,10.7-8.6,16.5-12.4c10.1-6.7,21.5-11.6,33.1-14.6c5.6-1.5,12.2-2.6,18.5-2.4
	c2.6,3,7.3,4.5,10.9,2.4c2.8,1.3,5.4,3,7.5,5.4c9,9.9,12.9,27.7,17,40.1C746.9,880.1,754.7,915.1,737.5,940.2z"/>
<path fill="#FFDDAB" d="M231.6,368.8c23,17,34.6,47,36.1,74.7c0.2,5.8,7.7,6.4,9.7,1.3c6.7-17.8,13.5-35.8,20.2-53.7
	c0.9-2.6,1.9-5.4,2.8-8.4c4.5,0.4,9,0.9,13.5,1.3c26.8,3,53.9,3.9,80.7,3.6c0.2,12,3.2,27,9.4,35.8c7.5,10.5,22.5,9.2,33.9,9.2
	c17.2-0.2,34.6-2.6,51.1-7.3c12.9-3.6,25.1-6.9,30.7-20c3.2-7.5,4.3-17,3.2-25.8c7.7-1.7,15-3.2,22.8-2.4
	c4.5,10.7,10.3,20.6,18,29.6c6.4,7.3,20,15.5,8.8,24.7c-7.5,6.2-17.4,10.5-26.2,14.4c-10.5,4.7-21.5,8.8-33.1,8.8
	c-1.3,0-5.8,0.4-6.9-0.2c-1.5-1.1-1.3-2.4-1.3-5.2c-0.2-4.5-0.2-8.8-1.1-13.3c-0.9-4.3-7.7-4.1-8.6,0c-1.5,7.1-4.5,20.8,0.9,26.8
	c6.2,6.9,20,5.8,28.1,4.7c13.7-1.7,26.2-7.1,38.2-13.3c9.4-4.9,21.2-10.3,26.8-20c4.3-7.3,3.4-15.5-0.6-22.3
	c5.8,1.3,12,1.3,19.3,0.2c7.1-1.1,15.5-2.1,21.7-5.8c-0.2,12.7-0.4,25.1-0.9,37.8c-1.5,38.6-5.4,83.7-27.5,115.9
	c-0.2,0.2-0.4,0.4-0.4,0.6c0,0,0,0,0,0.2c-7.3,10.5-16.7,19.5-28.5,26.4c0-0.9-0.2-1.7-0.4-2.6c-0.6-3.2-3.2-7.5-6.4-9
	c0.2-1.1,0.4-2.4,0.4-3.6c0.2-1.1-0.9-2.1-1.9-2.4c-26.4-5.4-59.9-1.3-83.5,12.2c-1.1-1.5-3.9-1.9-4.7,0c-0.2,0.2-0.2,0.4-0.2,0.6
	l0,0v0.2c-0.2,0.6-0.4,1.5-0.6,2.1c-1.9,5.8-3.9,11.6-5.4,17.6c-7.5-0.2-14.8-0.4-22.1-0.4c-3.6,0-7.3-0.4-10.9-0.4
	c-0.4,0-1.1,0-1.7,0c-15.7-3.9-30.7-9.4-45.1-18.7c-10.3-6.7-19.5-14.4-27.7-23.6c-6.9-7.9-12.2-19.3-22.1-23.8h-0.2
	c-3.4,10.7,4.7,22.3,10.9,30.5c7.7,10.1,17.2,19.3,27.9,26.4c17,11.2,36.7,15.2,56.4,18.5c1.9,0.4,3.6,0.9,5.4,1.3
	c8.6,2.1,16.7,3.9,25.3,4.7v0.2c-0.9,3.4,2.6,6.9,5.8,6.7c-0.2,1.7-0.4,3.4-0.9,5.4c-13.5-4.9-28.1-7.9-42.1-10.5
	c-17.2-3-36.9-6.9-54.5-5.4c-7.5,0.6-10.7,4.7-12,10.1c-15.2-4.3-29.8-9-44.4-15.2c-7.5-3.2-14.8-6.7-21.9-10.5
	c-2.1-1.1-4.3-2.1-6.4-3.4c-0.2-0.4-0.4-0.6-0.9-1.1c-1.7-1.9-3.6-2.8-5.8-3.4c-0.4-0.6-0.9-1.3-1.5-1.9c-0.2-0.2-0.4-0.2-0.6-0.4
	c0,0-0.4-0.4-0.9-0.6c-0.6-0.6-1.3-1.1-1.9-1.5c-5.2-9.7-10.3-19.1-15.7-28.5c-0.9-3.2-2.1-6.4-3.2-9.7c-0.6-10.5,1.9-21.7,2.6-32.2
	c0.6-12.4,4.1-24.5,5.2-36.9c0-1.1-0.2-1.9-0.6-2.6c0.9-3.9-3-8.6-7.5-6c-12.7,7.3-27,14.2-40.8,15.7c-11.4-1.9-21.2-6-29.4-15
	c-10.1-11.2-14.2-26.6-15.9-41.2c-1.9-15.2-3.6-32.6,0.4-47.6c1.7-6.2,4.5-10.9,8.4-16.1c0.6-0.9,1.3-1.5,1.9-2.4
	C196.8,354.7,215.9,357.2,231.6,368.8z"/>
<g>
	<path d="M196.6,406.8c0-4.3-0.4-10.5,1.7-14.2c3.2-5.6,10.5-3.9,16.1-1.5c-6.4,9.9-7.5,23.4-7.5,35c0,9.4,1.1,20.8,11.4,24
		c4.3,1.3,6.7-4.1,4.1-7.1c-11.4-12.9-3.2-33.1-2.6-48.9c9,5.6,14.4,14.4,17.6,24.5c2.1,6.7,11.2,3.9,10.3-2.8
		c-2.6-18-19.1-34.1-36.9-36.7c-19.5-2.8-24.5,13.5-16.3,28.5C195.1,408.3,196.6,407.9,196.6,406.8z"/>
	<path d="M724.2,792.3c67.4-123.6,49.8-275.6-15-396.9c-18.7-34.8-40.4-67-70-93.2c-1.1-11.6-2.4-23.4-3.6-35
		c0.2-0.2,0.2-0.6,0.2-1.1h0.2c0-0.2,0-0.4,0-0.6c0,0,0,0,0-0.2s0-0.2,0-0.4c-0.2-0.6-0.2-1.5-0.4-2.1c0-0.2,0-0.2-0.2-0.4
		c-0.2-0.4-0.2-0.6-0.4-1.1s-0.2-0.9-0.4-1.3c-0.2-6.7-1.7-13.5-4.7-18.7c-2.4-12.9-8.8-26.4-14.6-36.9c-4.1-7.3-9-14.4-14.4-20.8
		c-3-3.4-6-6.9-9.4-10.1c-0.6-0.6-1.7-1.5-2.6-2.4c0.6-0.6,1.1-1.3,1.5-2.1c6.7-18.2,4.5-37.6-4.7-54.5c-2.8-5.2-10.5-2.6-10.7,2.8
		c-0.6,12.7-5.4,24-20,17.8c-9.9-9.9-20.4-19.7-32.4-26.2c-15.2-8.2-31.8-14.8-48.7-18.9c-35.4-8.8-72.3-9.2-108.4-2.8
		c-37.3,6.7-73.4,20.6-106.7,39.1c-16.1,8.8-32.2,18.5-46.6,30c-14.2,11.4-21.2,25.8-24,43.4c-3.6,23.2-6.2,46.8-7.9,70.2
		c-0.4,5.2-0.6,10.3-0.9,15.5c-6.4,2.6-11.6,7.3-17.2,12.4c-8.6,7.5-16.5,15.9-24.3,24.3c-15.2,16.7-28.8,34.6-40.8,53.7
		c-24.5,38.4-42.9,80.7-54.3,124.9c-24.9,96.2-15.2,200.9,26.4,291c21,45.5,52.2,87.4,97.2,111.2c1.7,0.9,3.6,1.3,5.2,1.5
		c-0.2,14.4-0.2,28.8,0.9,42.9c1.5,18.5,9.7,32,26.2,40.6c38.6,20.4,86.9,33.5,130.3,23.2c5.8,31.1,12.4,62.2,21.2,92.3
		c4.7,16.1,15.2,24.7,31.3,28.8c18.5,4.7,38,6.7,57.1,7.3c39.9,1.1,80.1-6,117.4-20.6c3.4-1.3,5.6-3.9,6.4-6.9c2.8-3,4.3-7.1,3.4-12
		c-0.4-3-1.1-6.2-1.5-9.2c4.3-1.7,8.4-4.5,11.4-6.4c10.3-6.2,19.7-15.5,23-27.5c3.2-12-0.9-26.8-3.2-38.6c-2.4-11.6-4.1-26.4-8.6-38
		c6.2-2.6,11.8-6.2,14.4-12.2c0.9-1.9,1.3-4.1,1.5-6.4c0.9,1.1,2.1,1.9,3.4,2.4c6.7,2.4,17.8,0.9,24.3-1.7
		c7.1-2.8,10.1-8.4,9.9-15.9c0-1.3,0-2.6-0.2-3.9c3.6,1.5,7.5,2.4,11.6,3c0,1.7,0.9,3.6,2.8,4.9c21.2,15.2,48.5,27.5,74.7,17.2
		c25.8-10.3,35.4-39.5,35.6-65.2c0.4-30.3-9.9-64-22.8-91C737.7,802.6,731.5,796.4,724.2,792.3z M641.8,460.7
		c3-43.8,2.6-87.4-0.2-130.9c12.2,20.8,25.1,41.4,37.1,62.5c17,29.8,31.6,61.2,42.3,93.8c21.2,64,28.5,133.3,17.8,200
		c-5.6,35.4-16.5,69.1-32.2,101.1c-9.2-0.9-19.1,0.4-28.5,3.2c-6.9,2.1-13.3,4.9-19.5,8.4c4.5-20.8,6.9-42.5,10.7-63.3
		c4.7-26,10.1-52.2,13.7-78.3c3.4-23.8-9-40.1-24-57.3c-8.2-9.4-16.7-18.2-26.2-26.4c-4.9-4.3-10.7-10.5-17.2-13.5
		C633,530.9,639.4,494,641.8,460.7z M630,390.1c-0.2,0.2-0.4,0.4-0.6,0.6c-6.7,7.7-17.2,8.2-26.6,9.7c-6.4,1.1-14.2,2.4-21.7,2.6
		c-6.4-7.1-13.3-13.7-18.5-22.3c-0.6-1.3-1.5-2.4-2.1-3.6c1.9-3,1.9-7.7-1.7-9.7c-0.4-5.2,3.6-11.2,7.1-13.1
		c5.8-3,13.5-3.9,19.7-5.4c5.2-1.3,10.3-2.6,15.5-3.6c0.4,2.8,1.1,5.4,1.7,7.9c0.6,2.8,6.4,14.2,5.2,16.3c-3,4.7-21.5-1.9-25.5-2.8
		c-5.2-1.3-8.4,5.8-3.6,8.6c8.2,4.7,34.8,10.7,39.5-2.1c2.4-6.7-4.5-16.5-6.4-22.5c-0.9-2.4-1.5-4.7-2.1-7.1
		c6.4-0.9,12.9-1.3,19.5-0.2C629.7,359.2,630,374.6,630,390.1z M613,255.3c3.9,14,6.7,27.9,8.8,42.1c1.7,10.9,1.7,23.6,4.3,34.8
		c-6.2-0.9-12.9,0-19.1,1.1c-1.1-5.6-2.1-11.2-3-17c-0.2-1.7-3.2-1.7-3.4,0c-0.9,6-1.1,12.2-0.6,18.2c-1.3,0.2-2.6,0.4-3.9,0.9
		c-12,2.4-27.5,3.4-38.2,9.2c-3.6,1.9-6.4,4.9-8.4,8.4c-5.4-14-9.7-28.5-14-42.7c-0.6-2.4-4.9-2.1-4.5,0.6
		c1.9,18.2,4.7,37.1,10.3,54.7c-7.3,0.6-14.4,2.6-19.7,7.1c-0.9-3.2-1.9-6.4-3.2-9.2c-6-12.4-19.3-10.7-31.3-9.7
		c-5.4,0.4-10.7,1.1-16.1,1.7c-5.4-9.9-9.9-20-14.2-30.5c-0.6-1.7-3-0.6-2.8,0.9c0.4,10.7,3,21,7.1,30.9c-9.7,1.3-19.1,3-28.8,4.9
		c-11.8,2.4-24.7,4.1-32.2,13.5c-0.6,0.2-1.3,0.4-1.9,0.9c-26.6,0.4-53.4-0.6-80.1-2.8c-4.7-0.4-9.2-0.9-14-1.3
		c4.1-10.7,9.4-21.2,19.1-25.3c1.5-0.6,2.6-1.5,3.2-2.8c1.9-1.3,3.4-3.2,3-5.8c-2.4-18.2-5.4-36.3-7.7-54.5c32.6,2.8,65-3,94.7-16.5
		c-1.1,2.1-2.1,4.3-3.4,6.2c-1.3,2.4,0.2,6.2,3.4,5.8c30.3-2.4,59.9-10.7,86.5-25.1c-1.3,1.9-2.8,4.1-4.1,6
		c-1.7,2.4,1.1,5.2,3.4,4.5c17.6-3.9,33.7-10.9,48.7-20.6c-1.1,1.7-1.9,3.2-3,4.9c-1.3,2.4,0.9,4.7,3.2,4.3
		c10.3-1.9,18.9-7.1,27.7-12.2c6.2-1.9,12.2-5.4,18.7-6.9c3.4-0.9,6.4-0.9,9-0.2C608.9,241.1,611.1,248.2,613,255.3z M433.6,392.9
		c16.3,6.7,36.5,3,52.4-3c3.4-1.3,3.9-5.8,1.9-8.4c-4.1-5.2-7.7-10.3-11.2-15.9c9.4-1.7,21.5-3.6,28.3,1.1
		c9.7,6.9,8.4,28.5,2.6,38.2c-5.8,9.7-22.1,11.8-32.6,14.2c-11.6,2.6-23.4,3.9-35.2,4.1c-11.2,0.2-26.4,2.1-29.6-11.2
		c-2.4-10.5-1.5-21.5-3-32.2c0-0.2-0.2-0.4-0.2-0.6c7.9-3.9,17.6-4.7,25.8-6.4c10.7-2.1,21.7-3.9,32.6-5.4c2.6,5.2,5.8,10.1,9,14.8
		c-13.1,3.2-25.1,1.7-38.8,0.9C430.1,382.6,428.2,390.5,433.6,392.9z M201.5,287c1.7-18.7,3.4-37.3,5.8-55.8
		c1.9-15.9,1.9-37.1,13.1-49.8c10.5-12,26.8-20.6,40.6-28.5c57.1-33.7,124.9-54.3,191.5-42.7c17.4,3,35,7.7,51.3,14.8
		c11.8,5.2,24.3,10.1,35.4,16.7c1.5,1.1,3.2,1.9,4.9,3c3.2,1.9,6.2,4.1,9.2,6.4c3.2,2.6,6.9,1.5,9-0.9c10.3,0.4,16.5-4.7,20.2-12.2
		c1.7,9.2,0.9,18.9-2.8,28.5c-0.6,1.7-0.4,3.2,0.2,4.3c-0.6,1.5-0.2,2.8,0.6,4.3c0.2,0.2,0.4,0.6,0.6,0.9
		c5.6,12.7,12.4,24.7,18,37.3c1.5,3.4,2.8,6.9,4.1,10.3c-15.9-0.2-31.6,12.4-43.6,20.6c-0.2,0.2-0.4,0.4-0.4,0.9
		c-0.9,0.2-1.5,0.6-2.4,0.9c1.7-3.2,3.6-6.4,5.4-9.7c1.5-2.8-1.9-5.2-4.3-3.2c-14.6,11.8-31.1,19.5-48.9,24c3-4.1,6-8.2,9.2-12.2
		c2.4-3-2.1-6.7-4.9-4.9c-27.9,16.5-57.7,27.3-89.7,30.9c1.7-3.4,3.6-6.9,5.4-10.5c1.7-3.4-1.7-7.1-5.2-5.2
		c-32,17.4-67.4,24.3-103.5,20.6c-1.7-2.4-5.4-3-7.3,0.2c-6,9.4-4.9,20.6-3.6,31.1c1.3,11.2,2.4,22.1,6.4,32.6
		c-11.2,6.9-16.3,18.9-21,31.3c-6.2-0.6-12.4-1.5-18.5-2.4c-11.2-1.5-22.8-3.9-34.1-3.9c-3.2-2.8-6.7-5.4-10.5-7.5
		c-9-5.6-18.9-8.4-28.1-8.6c-1.7-10.7-3-21.7-4.1-32.6c0-2.4-0.4-4.7-0.6-7.1C199.6,301.6,200.9,294.6,201.5,287z M290.4,381.7
		c-5.2,14-10.5,27.9-15.7,41.9c-3.9-18-11.6-35.4-23.4-49.4C263.8,378.3,277.3,380.2,290.4,381.7z M231.6,368.8
		c23,17,34.6,47,36.1,74.7c0.2,5.8,7.7,6.4,9.7,1.3c6.7-17.8,13.5-35.8,20.2-53.7c0.9-2.6,1.9-5.4,2.8-8.4c4.5,0.4,9,0.9,13.5,1.3
		c26.8,3,53.9,3.9,80.7,3.6c0.2,12,3.2,27,9.4,35.8c7.5,10.5,22.5,9.2,33.9,9.2c17.2-0.2,34.6-2.6,51.1-7.3
		c12.9-3.6,25.1-6.9,30.7-20c3.2-7.5,4.3-17,3.2-25.8c7.7-1.7,15-3.2,22.8-2.4c4.5,10.7,10.3,20.6,18,29.6c6.4,7.3,20,15.5,8.8,24.7
		c-7.5,6.2-17.4,10.5-26.2,14.4c-10.5,4.7-21.5,8.8-33.1,8.8c-1.3,0-5.8,0.4-6.9-0.2c-1.5-1.1-1.3-2.4-1.3-5.2
		c-0.2-4.5-0.2-8.8-1.1-13.3c-0.9-4.3-7.7-4.1-8.6,0c-1.5,7.1-4.5,20.8,0.9,26.8c6.2,6.9,20,5.8,28.1,4.7
		c13.7-1.7,26.2-7.1,38.2-13.3c9.4-4.9,21.2-10.3,26.8-20c4.3-7.3,3.4-15.5-0.6-22.3c5.8,1.3,12,1.3,19.3,0.2
		c7.1-1.1,15.5-2.1,21.7-5.8c-0.2,12.7-0.4,25.1-0.9,37.8c-1.5,38.6-5.4,83.7-27.5,115.9c-0.2,0.2-0.4,0.4-0.4,0.6c0,0,0,0,0,0.2
		c-7.3,10.5-16.7,19.5-28.5,26.4c0-0.9-0.2-1.7-0.4-2.6c-0.6-3.2-3.2-7.5-6.4-9c0.2-1.1,0.4-2.4,0.4-3.6c0.2-1.1-0.9-2.1-1.9-2.4
		c-26.4-5.4-59.9-1.3-83.5,12.2c-1.1-1.5-3.9-1.9-4.7,0c-0.2,0.2-0.2,0.4-0.2,0.6l0,0v0.2c-0.2,0.6-0.4,1.5-0.6,2.1
		c-1.9,5.8-3.9,11.6-5.4,17.6c-7.5-0.2-14.8-0.4-22.1-0.4c-3.6,0-7.3-0.4-10.9-0.4c-0.4,0-1.1,0-1.7,0c-15.7-3.9-30.7-9.4-45.1-18.7
		c-10.3-6.7-19.5-14.4-27.7-23.6c-6.9-7.9-12.2-19.3-22.1-23.8h-0.2c-3.4,10.7,4.7,22.3,10.9,30.5c7.7,10.1,17.2,19.3,27.9,26.4
		c17,11.2,36.7,15.2,56.4,18.5c1.9,0.4,3.6,0.9,5.4,1.3c8.6,2.1,16.7,3.9,25.3,4.7v0.2c-0.9,3.4,2.6,6.9,5.8,6.7
		c-0.2,1.7-0.4,3.4-0.9,5.4c-13.5-4.9-28.1-7.9-42.1-10.5c-17.2-3-36.9-6.9-54.5-5.4c-7.5,0.6-10.7,4.7-12,10.1
		c-15.2-4.3-29.8-9-44.4-15.2c-7.5-3.2-14.8-6.7-21.9-10.5c-2.1-1.1-4.3-2.1-6.4-3.4c-0.2-0.4-0.4-0.6-0.9-1.1
		c-1.7-1.9-3.6-2.8-5.8-3.4c-0.4-0.6-0.9-1.3-1.5-1.9c-0.2-0.2-0.4-0.2-0.6-0.4c0,0-0.4-0.4-0.9-0.6c-0.6-0.6-1.3-1.1-1.9-1.5
		c-5.2-9.7-10.3-19.1-15.7-28.5c-0.9-3.2-2.1-6.4-3.2-9.7c-0.6-10.5,1.9-21.7,2.6-32.2c0.6-12.4,4.1-24.5,5.2-36.9
		c0-1.1-0.2-1.9-0.6-2.6c0.9-3.9-3-8.6-7.5-6c-12.7,7.3-27,14.2-40.8,15.7c-11.4-1.9-21.2-6-29.4-15c-10.1-11.2-14.2-26.6-15.9-41.2
		c-1.9-15.2-3.6-32.6,0.4-47.6c1.7-6.2,4.5-10.9,8.4-16.1c0.6-0.9,1.3-1.5,1.9-2.4C196.8,354.7,215.9,357.2,231.6,368.8z M564.1,583
		c-1.5,1.7-1.3,6.4-1.5,9.9c-2.4,1.5-2.6,4.1-1.3,6.2c-0.6,1.7-1.5,3.2-2.4,4.9c-3.4,6-8.8,10.7-14.4,14.6c-3,2.1-20,15.5-25.3,16.3
		c-1.7-2.4-5.2-3.2-7.5-0.9c-0.4,0.4-0.9,0.9-1.3,1.3c-0.4-2.8-1.3-5.4-2.6-8.4c-1.1-2.4-4.7-3.2-6.7-1.7c-3.2,2.1-6.7,4.5-9.9,6.9
		c-1.1-2.4-1.7-4.7-1.9-7.7c-0.2-3-4.5-5.8-6.9-2.8c0,0.2-0.2,0.2-0.2,0.4c0.6-3.9,1.3-7.7,1.7-11.8c0.4-3-2.1-6.4-4.9-6.7
		c0.6-4.1,1.3-8.4,1.7-12.4c1.5,0.9,3.2,1.1,5.2,0.2c12.4-5.6,24-11.4,37.6-14.2c12-2.6,24.3-2.8,36.5-2.6c-0.6,1.5-1.3,2.8-1.9,4.5
		C556.5,582.8,561.7,585.4,564.1,583z M506.8,648.3c1.3-0.4,2.4-0.6,3.4-1.3c0,8.2,0.2,16.3-0.2,24.7c-0.2,5.4,0.2,12-6,14.2
		c-3.4,1.3-7.3,0.2-10.3-1.3c-15.9-8.2-11.8-27.9-6.7-41.9c1.5,0.9,3.4,1.1,4.7,0.2c3-1.9,6-3.6,8.8-5.6c0.2,2.1,0.2,4.1-0.2,6.2
		C500.1,646.8,504,648.9,506.8,648.3z M479.7,645.3c-4.7,7.1-7.7,15.2-7.5,24c-0.4-0.4-1.1-0.6-1.7-0.4c-11.2,0.9-21.9,3.6-33.1,4.7
		c-7.5,0.6-6.2,11.8,1.3,10.3c11.2-2.1,23-4.3,33.3-9.2c0.2-0.2,0.4-0.2,0.6-0.4c1.3,6.9,4.7,13.1,9.9,17.6
		c-18.9,15.2-39.7,28.1-61.8,38c-6,2.8-12.2,5.2-18.5,7.3c-3,1.1-7.1,3-10.3,3.4c-3.9,0.4-3.9,1.5-5.6-2.8c-2.4-5.8-3-14-4.1-20.4
		c-1.5-8.2-2.8-16.5-3.6-24.9c-1.7-13.7-2.6-27.5-3-41.4c-0.2-7.3-1.1-15.5-0.2-22.8c0-0.2,0-0.4,0.2-0.6c0.9,0,1.7,0,2.6,0
		c3.2,0.6,6.9,0.2,10.1,0.4c15,0.9,29.8,3,44.4,6c14.6,3,28.8,7.9,43.4,11.2C477.3,645.9,478.6,645.7,479.7,645.3z M468.8,719.1
		c2.1,4.5,4.7,8.8,7.1,13.3c5.8,10.7,11.2,21.7,16.3,32.6c8.2,17.8,15.5,36.1,22.1,54.5c-18.2-3.4-34.8-10.5-51.7-19.1
		c-16.5-8.6-33.1-17.4-50.9-22.3c7.3-13.1,14.8-26,22.1-38.8C445.8,733.1,457.6,726.4,468.8,719.1z M501.6,754.9
		c-2.4-4.3-16.1-29.4-26.2-40.4c7.1-4.9,14-10.3,20.6-15.9l0,0c8.4,1.5,17.2-0.9,22.5-7.7c1.1-1.3,1.7-2.8,2.6-4.3
		c9.7,4.7,19.5,9.4,29.2,14c-1.1,22.5-4.5,43.4-11.2,65c-4.3,13.5-8.8,26.8-13.1,40.1C519.2,788.4,511,771.3,501.6,754.9z
		 M565.6,707.7c3.6,1.7,7.5,3.4,11.2,5.2c3.4,1.7,7.9,0.9,9.9-2.4c2.1,2.6,4.3,5.4,6.4,7.9c4.1,5.2,10.9,11.2,10.7,17.6
		c0,7.3-6.9,12.2-11.6,17.6c-4.7,5.2-9.2,10.5-14,15.9c-8.4,9.4-17,18.9-25.1,28.5c-3.4,4.1-7.1,8.2-10.7,12.2
		C553.3,777.1,567.7,742.3,565.6,707.7z M584.4,641c-1.5,18.7-4.5,36.9-8.8,55.2c-17-8.4-33.9-16.5-51.3-24.5c0.2-3,0-6.2,0-9.2
		c8.6,0.4,18.7-0.4,26.2-3.2c4.5-1.9,4.5-9.4-1.3-9.2c-8.2,0.2-17.4,3.4-25.3,7.1c-0.4-4.1-0.9-7.9-1.1-11.2c0-0.6-0.2-1.3-0.4-1.9
		c11.6-3.9,27.9-17.2,35-23.8c7.5,0.2,15,1.1,22.5,1.1c6,0,5.2-2.4,5.6,3.2C586,629.8,584.9,635.8,584.4,641z M229.9,494.6
		c6.7-1.7,13.3-4.3,19.7-7.5c-1.5,12-1.7,24.5-1.7,36.9c-5.2-10.1-10.7-19.7-18-28.3C229.9,495.2,229.9,494.8,229.9,494.6z
		 M53.7,659.2c-13.3-90.6,4.9-183.5,50.2-262.9c12.2-21.2,26.2-41.6,41.6-61c7.3-9,15-17.4,22.8-26c3.6-4.1,7.5-7.7,10.7-11.6
		c0,3.2,0.2,6.7,0.2,9.9c0.6,9.7,2.6,19.1,4.3,28.5c-0.2,2.1-0.2,4.3-0.2,6.4c-0.2,0.9-0.4,1.9-0.6,2.8c-3.4,0.4-6.4,0.9-9.9,2.4
		c-8.8,3.6-14.4,11.2-18.5,19.7c-9.2,20.2-6.4,45.5-3.4,66.8c2.8,20.2,9.9,40.8,25.3,54.7c11.4,10.3,27.3,17.4,42.3,14
		c8.8,10.9,14.4,23,20.6,35.8c6,12,12.2,27.5,13.3,41.6c-0.2,1.9-0.2,3.9,0,6c-16.3,7.9-32,18.2-47.4,27.3
		c-21.2,12.2-42.7,24-63.3,36.9c-15.9,9.9-17,23.6-13.3,41c4.1,19.7,13.1,38.2,21.5,56.7c9.2,20.6,16.3,41.4,18.9,63.7
		c2.6,22.1,2.4,44.6,2.6,66.8C100.7,832.4,65.5,739.7,53.7,659.2z M216.6,975.6c-6.7-2.8-14.2-6-19.1-11.4
		c-6.7-7.3-6.2-17.4-6.4-26.6c-0.2-20.8-0.2-41.4-0.4-62.2c-0.2-38.6-1.7-77.7-16.5-114c-6.7-16.1-15-31.3-21.9-47.4
		c-3.4-7.9-6.4-16.3-8.4-24.9c-1.1-4.5-2.4-9.9-1.9-14.6c0.4-6,4.3-8.4,9-11.4c20.4-12.7,41.4-24.3,62-36.5
		c17.4-10.1,36.5-19.5,53-31.3c1.9,0.6,4.1,1.5,6,2.4c1.7,0.9,3.6,1.3,5.6,1.9c2.4,2.6,5.2,5.2,8.6,7.5c7.9,5.4,16.5,9.7,25.3,13.5
		c8.2,3.6,16.7,6.9,25.1,10.1c7.9,3,16.3,6.9,24.9,6.4c0,1.9,0.2,3.9,0.2,5.6c0.2,19.3,1.9,38.6,4.5,57.7c1.1,8.8,2.6,17.6,4.3,26.4
		c1.3,7.1,1.7,17.2,6,23.2c8.2,11.4,26.6,1.3,36.3-2.4c3.4-1.3,6.7-2.8,10.1-4.1c-10.1,11.2-19.3,23-28.3,35
		c-3,3.9,0.2,9.2,4.3,10.5c26.4,8.4,51.5,27.9,77.9,39.9c-27.3,1.3-54.5,3.4-81.6,6.9c-19.5,2.4-38.8,5.2-58.2,8.6
		c-5.6,0.9-11.4,1.7-16.5,3.4c-2.4-6.2-2.4-15.7-3.2-21.5c-1.3-9.9-2.4-19.7-3.2-29.6c-1.5-19.1-1.9-38.2-4.3-57.1
		c-0.2-1.9-3.2-2.8-3.6-0.4c-5.6,22.8-5.4,47-4.7,70.4c0.2,7.7,0.6,15.5,1.3,23.2l-0.2-0.2c-6-7.7-12.4-17-20.4-22.5
		c-6-4.1-12.2,3.6-9.4,9.4c4.3,8.8,13.5,16.7,20.6,23.4c0.9,0.9,1.9,1.9,3,3c-10.1-0.9-20.6-0.4-30.3,0.6c-10.5,1.3-11.2,16.5,0,17
		c8.8,0.2,17.6-0.6,26.2-1.7c5.4-0.6,11.2-2.6,16.3-1.9c-0.2,1.1-0.6,2.1-0.6,3.4c-0.2,1.3,0.4,2.6,1.5,3.4c0.6,17,3,34.1,4.9,50.9
		c2.4,20,5.4,39.7,8.6,59.7c0.9,5.2,1.7,10.1,2.6,15.2C288.7,1001.8,250.5,990.6,216.6,975.6z M444.1,1119
		c-18.2-0.2-36.7-1.7-54.5-5.8c-7.3-1.5-14.6-3-18.5-10.3c-3.9-7.3-5.2-17.6-7.1-25.3c-9.4-37.6-17.6-75.3-25.5-113.1
		c-3.9-18.9-7.9-37.8-11.8-56.7c-2.8-13.7-5.2-27.9-8.4-41.9c5.8-1.7,14.8-1.7,19.5-2.6c9.9-1.7,19.7-3.2,29.6-4.5
		c20.2-2.8,40.6-4.9,61-6.4c19.3-1.5,38.8-2.4,58.4-2.6c4.1,0,8.4-0.2,12.4-0.2c4.1,0,10.3-1.1,14.6-0.4c0,0.6,0.2,1.3,0.2,1.9
		l0.2,4.1c0.2,5.6,0.4,11.2,0.6,16.7c3.4,77.3,10.5,154.8,23.6,230.9C508.3,1113.6,476.5,1119.2,444.1,1119z M574.4,1060.2
		c-2.8,3.4-6.4,6-10.3,8.4c-1.1,0.6-2.4,1.3-3.4,1.9c-4.3-26.2-8.2-52.4-11.6-78.8c7.9-1.3,16.1-3.6,23.6-6.4
		c1.5,16.3,2.6,32.4,5.2,48.7C579.5,1043.8,581.2,1052.2,574.4,1060.2z M576.5,962.7c-9,5.8-19.3,8.8-29.4,12.4
		c-3.4-28.1-6.4-56.2-8.6-84.6c-0.6-8.4-1.3-16.7-1.7-24.9c-0.4-7.1,0-14.8-1.3-21.9c3.2-0.6,11.4,0.2,13.7,0.2
		c3.9,0,9.9-1.1,14.4,0c3.2,12,3.6,25.5,5.6,37.8c2.4,14.6,4.5,29.2,6.7,43.8c1.1,6.9,2.1,14,3.2,20.8
		C579.9,953.3,582.9,958.6,576.5,962.7z M573.9,825.6c-6.4-2.6-27.3-0.6-38,6c0.2-0.9,0.4-1.5,0.6-2.4c11.8-8.4,22.3-20.4,32.2-30.5
		c12.2-12.4,24.7-25.1,36.5-38c7.9-8.8,18.7-18.7,14-31.8c-2.1-5.6-6.9-10.5-10.5-15.2c-5.6-7.3-11.4-14.6-17-21.9
		c0-0.2-0.2-0.2-0.2-0.2c4.7-22.8,7.5-46.1,6.9-69.3c-0.4-10.9-7.9-14-17.4-13.7c3.2-3,6.2-6.7,9.2-9.9c3-3.4,6-7.1,8.8-10.9
		c3.2-4.5,4.5-10.3,7.7-14.8c5.8,4.7,10.9,11.6,15.7,16.5c7.7,7.9,15.2,16.1,22.5,24.5c6.7,7.7,14.8,16.1,18.5,25.8
		c4.3,11.6-0.2,25.1-2.4,36.7c-4.1,22.1-8.2,44.2-12,66.3c-4.1,22.8-10.1,45.9-12,68.9c0,0.9,0,1.7,0.2,2.6
		c-6.4,5.8-13.5,13.7-17,21.9c-0.9-0.9-1.7-1.7-2.8-2.6c-8.8-6.7-23.8-3.9-34.3,1.5C581,830.9,578.4,827.3,573.9,825.6z M617.3,946
		c-5.8,1.5-9.9,2.1-14.4,6.4c-0.2,0.2-0.2,0.2-0.4,0.4c-0.9-7.1-2.8-14.6-3.9-20.6c-1.9-13.1-4.1-26.4-6.2-39.5
		c-2.1-13.1-4.3-26.4-6.7-39.5c-0.6-3-0.9-6.7-1.5-10.1c4.1,0,8.4,0.2,12.7,0.9c7.9,1.3,10.3,4.1,12.2,11.8
		c3.4,13.1,4.3,26.6,5.8,39.9c1.5,13.5,2.8,26.8,4.3,40.4c0.2,3,0.9,6,1.1,8.8C619.4,945.3,618.4,945.5,617.3,946z M737.5,940.2
		c-16.5,24-45.7,17-67.8,5.2c11.8-1.9,23.4-6.9,32-13.3c2.8-2.1,1.3-6.4-2.4-5.8c-10.3,2.1-20.6,3.9-31.1,3
		c-9.9-0.6-19.3-3.4-29.2-4.3c0,0,0,0-0.2,0c-1.7-14.4-4.1-28.8-6-42.5c-1.5-10.5-2.4-26.8-7.7-38.4c3.6-2.6,6.4-6.2,9.9-9.2
		c5.2-4.5,10.7-8.6,16.5-12.4c10.1-6.7,21.5-11.6,33.1-14.6c5.6-1.5,12.2-2.6,18.5-2.4c2.6,3,7.3,4.5,10.9,2.4
		c2.8,1.3,5.4,3,7.5,5.4c9,9.9,12.9,27.7,17,40.1C746.9,880.1,754.7,915.1,737.5,940.2z"/>
	<path d="M424.5,511.6c5.2,0.9,10.3,1.5,15.5,2.4c2.1,0.4,10.5,0.6,14.2,1.9c0.2,2.4,2.4,4.5,5.2,4.5c5.2,0.2,11.4,0,16.1,1.1
		c3,0.6,4.5,1.7,7.9,1.3c8.2-1.3,16.1-2.1,24.5-3.2c0.9,4.3,6,6.2,9.4,3c1.3-1.3,2.6-2.4,3.4-4.1c0.4-0.9,0.9-1.5,1.3-2.4
		c0.2-0.2,0.4-0.4,0.4-0.9c2.1,2.4,6.2,3.2,8.4,0.4c2.8-3.6,11.4-0.2,15.5,0.2c5.4,0.4,10.7,0,16.1-1.3c12-2.8,23.4-11.8,36.3-8.2
		c4.1,1.1,8.4-3,7.1-7.3c0.2,0.6,8.8-5.6,9.7-7.3c1.3-2.6,2.6-10.9-0.6-9.7c4.7-1.9,6.2-10.3-0.2-11.4c-27-4.9-58.6-3.4-84.6,6.9
		c-1.1-0.9-2.6-1.3-3.9-0.4c-8.4,5.6-18.7,8.4-28.8,6.2c-7.9-1.9-13.3-6.4-21.9-5.2c-18.2,2.6-37.3,13.7-52.4,23.8
		C419.8,504.3,419.6,510.9,424.5,511.6z M457.2,495.7c4.7-1.9,9.4-3.6,14.2-4.9c7.5-1.9,12-0.9,19.1,1.3c12,3.6,23.8,1.7,33.7-4.9
		c0.9,1.1,1.9,1.7,3.9,1.5c13.5-1.7,26.6-6.2,40.1-7.7c12.4-1.5,24.7-1.3,36.9,0.4c0.2,1.7,0.2,3.4-0.4,4.3
		c-0.6,0.9-4.1,0.9-5.2,1.5c-1.5,0.9-3,2.4-3.9,3.9c-0.6,1.1-1.1,2.1-1.5,3c-11.6-0.2-21.5,6.2-33.1,9.2c-4.3,1.1-8.6,1.7-13.1,1.5
		c-4.5-0.2-8.6-2.6-12.9-2.8c-3-0.2-5.6,0.4-7.7,1.7c-1.1-0.4-2.4-0.9-3.9-0.9c-4.9-0.2-7.3,2.1-9.2,5.4c-0.9-0.2-1.9-0.2-3-0.2
		c-5.2,0.9-10.7,2.1-15.9,2.1c-3.2,0-5.8-0.4-9,0.4c-6.7,1.9-14.8,0.4-22.5-0.2c-3-3.6-6.2-4.3-11.4-4.9c-3.9-0.6-7.7-1.1-11.4-1.7
		C446,500.6,451.6,498,457.2,495.7z"/>
	<path d="M560.8,530.9c-8.2,2.4-15,7.3-23.4,9.4c-7.7,2.1-15.5,3.2-23.4,3c-7.9-0.2-15.9-1.7-23.4-4.1c-5.8-1.9-12.4-6.9-18.7-4.9
		c-0.4,0.2-1.1,0.6-0.9,1.3c1.3,14.4,30.5,19.3,41.4,20.2c17,1.5,42.3-1.5,53.9-15.5C569.9,536.4,566.8,529.2,560.8,530.9z"/>
	<path d="M524.8,728.1c0.4-0.4,0.6-0.9,0.9-1.5c0.4-0.6,0.9-1.3,1.3-2.1c0.4-1.1,0.2-3.2-0.6-4.3c-0.6-0.9-1.3-1.7-2.1-2.1
		c-1.7-2.1-4.7-2.6-7.3-1.5c-2.4,0.9-3.9,2.8-4.5,5.2c-0.4,1.7,0,3.4,1.1,4.9c0.4,1.7,1.5,3.2,3.2,3.6c0.4,0,1.1,0.2,1.5,0.2
		C520.5,731.1,523.1,730,524.8,728.1z"/>
	<path d="M529.3,756.2c0-0.4,0-1.1,0-1.5c0.2-1.1,0.2-2.1-0.2-3.4c-0.9-3.2-4.9-4.1-7.1-1.9c-1.3,1.1-2.6,2.1-2.8,3.9
		c-0.4,3,1.5,5.4,4.5,5.2c1.1,0.6,2.4,1.1,3.4,0.6C528.2,758.8,529.3,757.5,529.3,756.2z"/>
	<path d="M692.6,847.5c4.1-3.2,4.3-10.1-1.5-11.6c-7.9-2.1-16.7,1.9-24,5.2c-5.2,2.4-13.5,5.6-13.7,12c-0.2,1.9,1.7,3.2,3.4,3.4
		c5.4,0.6,11.6-1.9,16.7-3.2C679.7,852,687.5,851.5,692.6,847.5z"/>
	<path d="M698.8,862.3c-6.9-0.2-14.8,1.7-21.2,3.9c-4.3,1.5-12,3.4-14,7.9c-1.3,2.8,0.9,5.8,4.1,5.2c10.9-1.9,22.3-1.1,33.1-3.4
		C708.5,874.1,706.4,862.5,698.8,862.3z"/>
	<path d="M702.5,889.1c-5.8,0.2-12,1.7-17.6,3c-4.7,1.1-10.3,1.3-14,4.7c-1.1,0.9-0.4,2.6,0.9,3c2.4,0.6,4.3,0.4,6.9,0.6
		c3.2,0.2,6.2,1.3,9.4,1.9c5.2,1.1,11.2,2.1,16.3,0C710.9,899.8,710.7,889.1,702.5,889.1z"/>
</g>
<path fill="#7A5820" d="M201.5,287c1.7-18.7,3.4-37.3,5.8-55.8c1.9-15.9,1.9-37.1,13.1-49.8c10.5-12,26.8-20.6,40.6-28.5
	c57.1-33.7,124.9-54.3,191.5-42.7c17.4,3,35,7.7,51.3,14.8c11.8,5.2,24.3,10.1,35.4,16.7c1.5,1.1,3.2,1.9,4.9,3
	c3.2,1.9,6.2,4.1,9.2,6.4c3.2,2.6,6.9,1.5,9-0.9c10.3,0.4,16.5-4.7,20.2-12.2c1.7,9.2,0.9,18.9-2.8,28.5c-0.6,1.7-0.4,3.2,0.2,4.3
	c-0.6,1.5-0.2,2.8,0.6,4.3c0.2,0.2,0.4,0.6,0.6,0.9c5.6,12.7,12.4,24.7,18,37.3c1.5,3.4,2.8,6.9,4.1,10.3
	c-15.9-0.2-31.6,12.4-43.6,20.6c-0.2,0.2-0.4,0.4-0.4,0.9c-0.9,0.2-1.5,0.6-2.4,0.9c1.7-3.2,3.6-6.4,5.4-9.7
	c1.5-2.8-1.9-5.2-4.3-3.2c-14.6,11.8-31.1,19.5-48.9,24c3-4.1,6-8.2,9.2-12.2c2.4-3-2.1-6.7-4.9-4.9c-27.9,16.5-57.7,27.3-89.7,30.9
	c1.7-3.4,3.6-6.9,5.4-10.5c1.7-3.4-1.7-7.1-5.2-5.2c-32,17.4-67.4,24.3-103.5,20.6c-1.7-2.4-5.4-3-7.3,0.2c-6,9.4-4.9,20.6-3.6,31.1
	c1.3,11.2,2.4,22.1,6.4,32.6c-11.2,6.9-16.3,18.9-21,31.3c-6.2-0.6-12.4-1.5-18.5-2.4c-11.2-1.5-22.8-3.9-34.1-3.9
	c-3.2-2.8-6.7-5.4-10.5-7.5c-9-5.6-18.9-8.4-28.1-8.6c-1.7-10.7-3-21.7-4.1-32.6c0-2.4-0.4-4.7-0.6-7.1
	C199.6,301.6,200.9,294.6,201.5,287z"/>
<path fill="#7A5820" d="M290.4,381.7c-5.2,14-10.5,27.9-15.7,41.9c-3.9-18-11.6-35.4-23.4-49.4C263.8,378.3,277.3,380.2,290.4,381.7
	z"/>
<path fill="#7A5820" d="M229.9,494.6c6.7-1.7,13.3-4.3,19.7-7.5c-1.5,12-1.7,24.5-1.7,36.9c-5.2-10.1-10.7-19.7-18-28.3
	C229.9,495.2,229.9,494.8,229.9,494.6z"/>
<path fill="#7A5820" d="M564.1,583c-1.5,1.7-1.3,6.4-1.5,9.9c-2.4,1.5-2.6,4.1-1.3,6.2c-0.6,1.7-1.5,3.2-2.4,4.9
	c-3.4,6-8.8,10.7-14.4,14.6c-3,2.1-20,15.5-25.3,16.3c-1.7-2.4-5.2-3.2-7.5-0.9c-0.4,0.4-0.9,0.9-1.3,1.3c-0.4-2.8-1.3-5.4-2.6-8.4
	c-1.1-2.4-4.7-3.2-6.7-1.7c-3.2,2.1-6.7,4.5-9.9,6.9c-1.1-2.4-1.7-4.7-1.9-7.7c-0.2-3-4.5-5.8-6.9-2.8c0,0.2-0.2,0.2-0.2,0.4
	c0.6-3.9,1.3-7.7,1.7-11.8c0.4-3-2.1-6.4-4.9-6.7c0.6-4.1,1.3-8.4,1.7-12.4c1.5,0.9,3.2,1.1,5.2,0.2c12.4-5.6,24-11.4,37.6-14.2
	c12-2.6,24.3-2.8,36.5-2.6c-0.6,1.5-1.3,2.8-1.9,4.5C556.5,582.8,561.7,585.4,564.1,583z"/>
<path fill="#7A5820" d="M457.2,495.7c4.7-1.9,9.4-3.6,14.2-4.9c7.5-1.9,12-0.9,19.1,1.3c12,3.6,23.8,1.7,33.7-4.9
	c0.9,1.1,1.9,1.7,3.9,1.5c13.5-1.7,26.6-6.2,40.1-7.7c12.4-1.5,24.7-1.3,36.9,0.4c0.2,1.7,0.2,3.4-0.4,4.3c-0.6,0.9-4.1,0.9-5.2,1.5
	c-1.5,0.9-3,2.4-3.9,3.9c-0.6,1.1-1.1,2.1-1.5,3c-11.6-0.2-21.5,6.2-33.1,9.2c-4.3,1.1-8.6,1.7-13.1,1.5c-4.5-0.2-8.6-2.6-12.9-2.8
	c-3-0.2-5.6,0.4-7.7,1.7c-1.1-0.4-2.4-0.9-3.9-0.9c-4.9-0.2-7.3,2.1-9.2,5.4c-0.9-0.2-1.9-0.2-3-0.2c-5.2,0.9-10.7,2.1-15.9,2.1
	c-3.2,0-5.8-0.4-9,0.4c-6.7,1.9-14.8,0.4-22.5-0.2c-3-3.6-6.2-4.3-11.4-4.9c-3.9-0.6-7.7-1.1-11.4-1.7
	C446,500.6,451.6,498,457.2,495.7z"/>
<path fill="#FFDDAB" d="M613,255.3c3.9,14,6.7,27.9,8.8,42.1c1.7,10.9,1.7,23.6,4.3,34.8c-6.2-0.9-12.9,0-19.1,1.1
	c-1.1-5.6-2.1-11.2-3-17c-0.2-1.7-3.2-1.7-3.4,0c-0.9,6-1.1,12.2-0.6,18.2c-1.3,0.2-2.6,0.4-3.9,0.9c-12,2.4-27.5,3.4-38.2,9.2
	c-3.6,1.9-6.4,4.9-8.4,8.4c-5.4-14-9.7-28.5-14-42.7c-0.6-2.4-4.9-2.1-4.5,0.6c1.9,18.2,4.7,37.1,10.3,54.7
	c-7.3,0.6-14.4,2.6-19.7,7.1c-0.9-3.2-1.9-6.4-3.2-9.2c-6-12.4-19.3-10.7-31.3-9.7c-5.4,0.4-10.7,1.1-16.1,1.7
	c-5.4-9.9-9.9-20-14.2-30.5c-0.6-1.7-3-0.6-2.8,0.9c0.4,10.7,3,21,7.1,30.9c-9.7,1.3-19.1,3-28.8,4.9c-11.8,2.4-24.7,4.1-32.2,13.5
	c-0.6,0.2-1.3,0.4-1.9,0.9c-26.6,0.4-53.4-0.6-80.1-2.8c-4.7-0.4-9.2-0.9-14-1.3c4.1-10.7,9.4-21.2,19.1-25.3
	c1.5-0.6,2.6-1.5,3.2-2.8c1.9-1.3,3.4-3.2,3-5.8c-2.4-18.2-5.4-36.3-7.7-54.5c32.6,2.8,65-3,94.7-16.5c-1.1,2.1-2.1,4.3-3.4,6.2
	c-1.3,2.4,0.2,6.2,3.4,5.8c30.3-2.4,59.9-10.7,86.5-25.1c-1.3,1.9-2.8,4.1-4.1,6c-1.7,2.4,1.1,5.2,3.4,4.5
	c17.6-3.9,33.7-10.9,48.7-20.6c-1.1,1.7-1.9,3.2-3,4.9c-1.3,2.4,0.9,4.7,3.2,4.3c10.3-1.9,18.9-7.1,27.7-12.2
	c6.2-1.9,12.2-5.4,18.7-6.9c3.4-0.9,6.4-0.9,9-0.2C608.9,241.1,611.1,248.2,613,255.3z"/>
<path fill="#FFF7EA" enable-background="new    " d="M630,390.1c-0.2,0.2-0.4,0.4-0.6,0.6c-6.7,7.7-17.2,8.2-26.6,9.7
	c-6.4,1.1-14.2,2.4-21.7,2.6c-6.4-7.1-13.3-13.7-18.5-22.3c-0.6-1.3-1.5-2.4-2.1-3.6c1.9-3,1.9-7.7-1.7-9.7
	c-0.4-5.2,3.6-11.2,7.1-13.1c5.8-3,13.5-3.9,19.7-5.4c5.2-1.3,10.3-2.6,15.5-3.6c0.4,2.8,1.1,5.4,1.7,7.9c0.6,2.8,6.4,14.2,5.2,16.3
	c-3,4.7-21.5-1.9-25.5-2.8c-5.2-1.3-8.4,5.8-3.6,8.6c8.2,4.7,34.8,10.7,39.5-2.1c2.4-6.7-4.5-16.5-6.4-22.5
	c-0.9-2.4-1.5-4.7-2.1-7.1c6.4-0.9,12.9-1.3,19.5-0.2C629.7,359.2,630,374.6,630,390.1z"/>
<path fill="#FFF7EA" enable-background="new    " d="M433.6,392.9c16.3,6.7,36.5,3,52.4-3c3.4-1.3,3.9-5.8,1.9-8.4
	c-4.1-5.2-7.7-10.3-11.2-15.9c9.4-1.7,21.5-3.6,28.3,1.1c9.7,6.9,8.4,28.5,2.6,38.2c-5.8,9.7-22.1,11.8-32.6,14.2
	c-11.6,2.6-23.4,3.9-35.2,4.1c-11.2,0.2-26.4,2.1-29.6-11.2c-2.4-10.5-1.5-21.5-3-32.2c0-0.2-0.2-0.4-0.2-0.6
	c7.9-3.9,17.6-4.7,25.8-6.4c10.7-2.1,21.7-3.9,32.6-5.4c2.6,5.2,5.8,10.1,9,14.8c-13.1,3.2-25.1,1.7-38.8,0.9
	C430.1,382.6,428.2,390.5,433.6,392.9z"/>
<path fill="#D33833" d="M506.8,648.3c1.3-0.4,2.4-0.6,3.4-1.3c0,8.2,0.2,16.3-0.2,24.7c-0.2,5.4,0.2,12-6,14.2
	c-3.4,1.3-7.3,0.2-10.3-1.3c-15.9-8.2-11.8-27.9-6.7-41.9c1.5,0.9,3.4,1.1,4.7,0.2c3-1.9,6-3.6,8.8-5.6c0.2,2.1,0.2,4.1-0.2,6.2
	C500.1,646.8,504,648.9,506.8,648.3z"/>
<path fill="#D33833" d="M479.7,645.3c-4.7,7.1-7.7,15.2-7.5,24c-0.4-0.4-1.1-0.6-1.7-0.4c-11.2,0.9-21.9,3.6-33.1,4.7
	c-7.5,0.6-6.2,11.8,1.3,10.3c11.2-2.1,23-4.3,33.3-9.2c0.2-0.2,0.4-0.2,0.6-0.4c1.3,6.9,4.7,13.1,9.9,17.6
	c-18.9,15.2-39.7,28.1-61.8,38c-6,2.8-12.2,5.2-18.5,7.3c-3,1.1-7.1,3-10.3,3.4c-3.9,0.4-3.9,1.5-5.6-2.8c-2.4-5.8-3-14-4.1-20.4
	c-1.5-8.2-2.8-16.5-3.6-24.9c-1.7-13.7-2.6-27.5-3-41.4c-0.2-7.3-1.1-15.5-0.2-22.8c0-0.2,0-0.4,0.2-0.6c0.9,0,1.7,0,2.6,0
	c3.2,0.6,6.9,0.2,10.1,0.4c15,0.9,29.8,3,44.4,6c14.6,3,28.8,7.9,43.4,11.2C477.3,645.9,478.6,645.7,479.7,645.3z"/>
<path fill="#D33833" d="M584.4,641c-1.5,18.7-4.5,36.9-8.8,55.2c-17-8.4-33.9-16.5-51.3-24.5c0.2-3,0-6.2,0-9.2
	c8.6,0.4,18.7-0.4,26.2-3.2c4.5-1.9,4.5-9.4-1.3-9.2c-8.2,0.2-17.4,3.4-25.3,7.1c-0.4-4.1-0.9-7.9-1.1-11.2c0-0.6-0.2-1.3-0.4-1.9
	c11.6-3.9,27.9-17.2,35-23.8c7.5,0.2,15,1.1,22.5,1.1c6,0,5.2-2.4,5.6,3.2C586,629.8,584.9,635.8,584.4,641z"/>
<path fill="#D33833" d="M641.8,460.7c3-43.8,2.6-87.4-0.2-130.9c12.2,20.8,25.1,41.4,37.1,62.5c17,29.8,31.6,61.2,42.3,93.8
	c21.2,64,28.5,133.3,17.8,200c-5.6,35.4-16.5,69.1-32.2,101.1c-9.2-0.9-19.1,0.4-28.5,3.2c-6.9,2.1-13.3,4.9-19.5,8.4
	c4.5-20.8,6.9-42.5,10.7-63.3c4.7-26,10.1-52.2,13.7-78.3c3.4-23.8-9-40.1-24-57.3c-8.2-9.4-16.7-18.2-26.2-26.4
	c-4.9-4.3-10.7-10.5-17.2-13.5C633,530.9,639.4,494,641.8,460.7z"/>
<path fill="#D33833" d="M53.7,659.2c-13.3-90.6,4.9-183.5,50.2-262.9c12.2-21.2,26.2-41.6,41.6-61c7.3-9,15-17.4,22.8-26
	c3.6-4.1,7.5-7.7,10.7-11.6c0,3.2,0.2,6.7,0.2,9.9c0.6,9.7,2.6,19.1,4.3,28.5c-0.2,2.1-0.2,4.3-0.2,6.4c-0.2,0.9-0.4,1.9-0.6,2.8
	c-3.4,0.4-6.4,0.9-9.9,2.4c-8.8,3.6-14.4,11.2-18.5,19.7c-9.2,20.2-6.4,45.5-3.4,66.8c2.8,20.2,9.9,40.8,25.3,54.7
	c11.4,10.3,27.3,17.4,42.3,14c8.8,10.9,14.4,23,20.6,35.8c6,12,12.2,27.5,13.3,41.6c-0.2,1.9-0.2,3.9,0,6
	c-16.3,7.9-32,18.2-47.4,27.3c-21.2,12.2-42.7,24-63.3,36.9c-15.9,9.9-17,23.6-13.3,41c4.1,19.7,13.1,38.2,21.5,56.7
	c9.2,20.6,16.3,41.4,18.9,63.7c2.6,22.1,2.4,44.6,2.6,66.8C100.7,832.4,65.5,739.7,53.7,659.2z"/>
<path fill="#4C4A47" d="M216.6,975.6c-6.7-2.8-14.2-6-19.1-11.4c-6.7-7.3-6.2-17.4-6.4-26.6c-0.2-20.8-0.2-41.4-0.4-62.2
	c-0.2-38.6-1.7-77.7-16.5-114c-6.7-16.1-15-31.3-21.9-47.4c-3.4-7.9-6.4-16.3-8.4-24.9c-1.1-4.5-2.4-9.9-1.9-14.6
	c0.4-6,4.3-8.4,9-11.4c20.4-12.7,41.4-24.3,62-36.5c17.4-10.1,36.5-19.5,53-31.3c1.9,0.6,4.1,1.5,6,2.4c1.7,0.9,3.6,1.3,5.6,1.9
	c2.4,2.6,5.2,5.2,8.6,7.5c7.9,5.4,16.5,9.7,25.3,13.5c8.2,3.6,16.7,6.9,25.1,10.1c7.9,3,16.3,6.9,24.9,6.4c0,1.9,0.2,3.9,0.2,5.6
	c0.2,19.3,1.9,38.6,4.5,57.7c1.1,8.8,2.6,17.6,4.3,26.4c1.3,7.1,1.7,17.2,6,23.2c8.2,11.4,26.6,1.3,36.3-2.4
	c3.4-1.3,6.7-2.8,10.1-4.1c-10.1,11.2-19.3,23-28.3,35c-3,3.9,0.2,9.2,4.3,10.5c26.4,8.4,51.5,27.9,77.9,39.9
	c-27.3,1.3-54.5,3.4-81.6,6.9c-19.5,2.4-38.8,5.2-58.2,8.6c-5.6,0.9-11.4,1.7-16.5,3.4c-2.4-6.2-2.4-15.7-3.2-21.5
	c-1.3-9.9-2.4-19.7-3.2-29.6c-1.5-19.1-1.9-38.2-4.3-57.1c-0.2-1.9-3.2-2.8-3.6-0.4c-5.6,22.8-5.4,47-4.7,70.4
	c0.2,7.7,0.6,15.5,1.3,23.2l-0.2-0.2c-6-7.7-12.4-17-20.4-22.5c-6-4.1-12.2,3.6-9.4,9.4c4.3,8.8,13.5,16.7,20.6,23.4
	c0.9,0.9,1.9,1.9,3,3c-10.1-0.9-20.6-0.4-30.3,0.6c-10.5,1.3-11.2,16.5,0,17c8.8,0.2,17.6-0.6,26.2-1.7c5.4-0.6,11.2-2.6,16.3-1.9
	c-0.2,1.1-0.6,2.1-0.6,3.4c-0.2,1.3,0.4,2.6,1.5,3.4c0.6,17,3,34.1,4.9,50.9c2.4,20,5.4,39.7,8.6,59.7c0.9,5.2,1.7,10.1,2.6,15.2
	C288.7,1001.8,250.5,990.6,216.6,975.6z"/>
<path fill="#4C4A47" d="M576.5,962.7c-9,5.8-19.3,8.8-29.4,12.4c-3.4-28.1-6.4-56.2-8.6-84.6c-0.6-8.4-1.3-16.7-1.7-24.9
	c-0.4-7.1,0-14.8-1.3-21.9c3.2-0.6,11.4,0.2,13.7,0.2c3.9,0,9.9-1.1,14.4,0c3.2,12,3.6,25.5,5.6,37.8c2.4,14.6,4.5,29.2,6.7,43.8
	c1.1,6.9,2.1,14,3.2,20.8C579.9,953.3,582.9,958.6,576.5,962.7z"/>
<path fill="#4C4A47" d="M573.9,825.6c-6.4-2.6-27.3-0.6-38,6c0.2-0.9,0.4-1.5,0.6-2.4c11.8-8.4,22.3-20.4,32.2-30.5
	c12.2-12.4,24.7-25.1,36.5-38c7.9-8.8,18.7-18.7,14-31.8c-2.1-5.6-6.9-10.5-10.5-15.2c-5.6-7.3-11.4-14.6-17-21.9
	c0-0.2-0.2-0.2-0.2-0.2c4.7-22.8,7.5-46.1,6.9-69.3c-0.4-10.9-7.9-14-17.4-13.7c3.2-3,6.2-6.7,9.2-9.9c3-3.4,6-7.1,8.8-10.9
	c3.2-4.5,4.5-10.3,7.7-14.8c5.8,4.7,10.9,11.6,15.7,16.5c7.7,7.9,15.2,16.1,22.5,24.5c6.7,7.7,14.8,16.1,18.5,25.8
	c4.3,11.6-0.2,25.1-2.4,36.7c-4.1,22.1-8.2,44.2-12,66.3c-4.1,22.8-10.1,45.9-12,68.9c0,0.9,0,1.7,0.2,2.6
	c-6.4,5.8-13.5,13.7-17,21.9c-0.9-0.9-1.7-1.7-2.8-2.6c-8.8-6.7-23.8-3.9-34.3,1.5C581,830.9,578.4,827.3,573.9,825.6z"/>
<path fill="#4C4A47" d="M468.8,719.1c2.1,4.5,4.7,8.8,7.1,13.3c5.8,10.7,11.2,21.7,16.3,32.6c8.2,17.8,15.5,36.1,22.1,54.5
	c-18.2-3.4-34.8-10.5-51.7-19.1c-16.5-8.6-33.1-17.4-50.9-22.3c7.3-13.1,14.8-26,22.1-38.8C445.8,733.1,457.6,726.4,468.8,719.1z"/>
<path fill="#4C4A47" d="M565.6,707.7c3.6,1.7,7.5,3.4,11.2,5.2c3.4,1.7,7.9,0.9,9.9-2.4c2.1,2.6,4.3,5.4,6.4,7.9
	c4.1,5.2,10.9,11.2,10.7,17.6c0,7.3-6.9,12.2-11.6,17.6c-4.7,5.2-9.2,10.5-14,15.9c-8.4,9.4-17,18.9-25.1,28.5
	c-3.4,4.1-7.1,8.2-10.7,12.2C553.3,777.1,567.7,742.3,565.6,707.7z"/>
<path d="M458.9,298.8c-17.4-6.9-37.1-6.2-52.2,5.6c-4.1,3.2,1.1,9.7,5.6,7.1c14.2-8.6,29.2-13.3,45.5-8.6
	C460.4,303.8,461.2,299.9,458.9,298.8z"/>
<path d="M608.3,277c-16.5-7.5-36.1-7.1-50.2,5.8c-3.9,3.6,1.3,10.3,5.8,7.5c12.9-8.4,27.7-14,43.4-10.5
	C608.7,280,610,277.6,608.3,277z"/>
</svg>
